<svg xmlns="http://www.w3.org/2000/svg" viewBox="0 0 165.15 31.59"><title>logo_full_1</title><path d="M19.25.18H9.62A9.61,9.61,0,0,0,0,9.77H9.63A9.61,9.61,0,0,1,19.25.18" style="fill:#7e9d5a"/><path d="M22.89.18H19.25A9.61,9.61,0,0,0,9.63,9.77H22.89Z" style="fill:#18407e"/><polygon points="0 9.77 0 22.01 9.62 22.01 9.63 9.77 9.63 9.77 0 9.77 0 9.77" style="fill:#adc816"/><path d="M9.62,31.59h3.64A9.61,9.61,0,0,0,22.89,22H9.62Z" style="fill:#e85012"/><path d="M32.51,22H22.89a9.61,9.61,0,0,1-9.62,9.59h9.63A9.61,9.61,0,0,0,32.51,22" style="fill:#f59d0f"/><polygon points="32.51 22 32.51 9.77 22.89 9.77 22.89 22 22.89 22 32.51 22.01 32.51 22" style="fill:#fbba07"/><path d="M115.86,0,101.29,19.1,86.41,0H80.47V24.46l0-.08a7,7,0,0,0,5.79,7.21h.12V11.82q0-1.22-.18-3.12a14.4,14.4,0,0,0,1.9,3.25L100,27.8h1.47L113.35,12q1.29-2.14,1.84-3.31-.24,2.2-.24,3.25V31.59h6.8V0Z" style="fill:#18407e"/><path d="M163.12,2a7,7,0,0,0-4.58-2h0V16.59q0,1,.31,5.45a34.32,34.32,0,0,0-3.61-3.43L133,0h-5V31.59h6.61V14.33q0-1.77-.31-4.84a22.45,22.45,0,0,0,2.63,2.57l23.21,19.53h5V7a7,7,0,0,0-2-4.95" style="fill:#18407e"/><path d="M50.83,25.65V17.82H65.41V12.43H50.83v-7h25V0H43.49V24.45l0-.07a7,7,0,0,0,5.8,7.21H76.12V25.65Z" style="fill:#18407e"/></svg>